<svg xmlns="http://www.w3.org/2000/svg" width="93" height="28" fill="none">
  <path fill="#F5F9FC" d="M16.8 3.4h-7v19H7v-19H0V1h16.8v2.4zM18.6 10.3c.5-1 1-1.8 1.8-2.4.7-.6 1.5-.9 2.5-.9l1 .1c.3 0 .5.2.8.3l-.2 2c-.1.3-.2.4-.5.4h-.6a4.2 4.2 0 0 0-2.2 0 3 3 0 0 0-1 .7c-.3.2-.6.6-.8 1l-.6 1.4v9.6H16V7.3h1.5l.6.1.2.6.2 2.3zM35 15.6c-1.2 0-2.3.2-3.1.3l-2.2.6a3 3 0 0 0-1.1 1 2 2 0 0 0-.4 1c0 .5 0 .8.2 1 .1.4.3.6.5.8l.8.4 1 .1 1.3-.1a5.8 5.8 0 0 0 2-1l1-1v-3zm-8.6-6.2a8.4 8.4 0 0 1 6-2.4c.8 0 1.5.2 2.2.4a4.6 4.6 0 0 1 2.7 3c.2.7.3 1.5.3 2.4v9.7h-1.2l-.6-.1-.3-.6-.3-1.4-1.2 1c-.3.3-.7.5-1.2.7l-1.3.4a7 7 0 0 1-3.3 0 3.6 3.6 0 0 1-2.3-2c-.2-.5-.3-1.1-.3-1.8 0-.6.2-1.2.5-1.7.4-.6.9-1.1 1.6-1.5.8-.5 1.7-.8 3-1 1.1-.4 2.6-.5 4.3-.6v-1.1c0-1.2-.2-2.1-.8-2.7-.5-.6-1.2-1-2.2-1a4.7 4.7 0 0 0-2.8.9l-.9.5-.6.3c-.2 0-.4 0-.5-.2l-.3-.3-.5-.9zM54.4 7.3l-6.2 15.2h-2.4L39.6 7.3h2.2l.5.1.3.4 3.8 9.8a18.2 18.2 0 0 1 .6 2.1 40 40 0 0 1 .6-2l3.9-9.9.3-.4.5-.1h2zM66.6 13.2a5 5 0 0 0-.3-1.7A3.6 3.6 0 0 0 62.7 9c-1.3 0-2.3.4-3 1.1-.8.8-1.2 1.8-1.4 3.1h8.3zm2.2 7.1c-.4.4-.8.8-1.2 1a7.6 7.6 0 0 1-3.1 1.2l-1.7.2c-1 0-2-.2-3-.5a6.6 6.6 0 0 1-3.7-4.1 10.3 10.3 0 0 1 0-6.5 7 7 0 0 1 1.3-2.4 7.3 7.3 0 0 1 7.7-1.7c.8.3 1.5.7 2 1.3.6.6 1 1.3 1.4 2.2.3.8.5 1.8.5 2.8l-.1.9-.6.2H58.2c0 1 .2 1.8.4 2.5s.6 1.3 1 1.8c.4.4.9.8 1.5 1 .6.3 1.2.4 2 .4a5.8 5.8 0 0 0 3-.8l.8-.4.6-.3c.2 0 .4.1.5.3l.8 1zM75 .4v22h-2.6V.5H75zM92.5 7.3L84 27c0 .2-.2.3-.3.4-.2.2-.4.2-.7.2h-2l2.8-6-6.2-14.3h2.3c.2 0 .4 0 .5.2.2 0 .2.2.3.3l4 9.6.5 1.3.4-1.3 4-9.6.3-.4.5-.1h2z"/>
</svg>

